<svg width="57" height="75" viewBox="0 0 57 75" fill="none" xmlns="http://www.w3.org/2000/svg">
<g clip-path="url(#clip0)">
<path d="M43.7128 75C51.0511 75 57 69.0286 57 61.6624C57 54.2962 51.0511 48.3248 43.7128 48.3248C36.3745 48.3248 30.4257 54.2962 30.4257 61.6624C30.4257 69.0286 36.3745 75 43.7128 75Z" fill="#0078CE"/>
<path d="M43.7128 0H30.4257V75H43.7128V0Z" fill="#79C7FF"/>
<path d="M13.2872 26.6753C20.6255 26.6753 26.5743 20.7038 26.5743 13.3376C26.5743 5.97146 20.6255 0 13.2872 0C5.94887 0 0 5.97146 0 13.3376C0 20.7038 5.94887 26.6753 13.2872 26.6753Z" fill="#B10000"/>
<path d="M13.2872 0H0V75H13.2872V0Z" fill="#FF6565"/>
</g>
<defs>
<clipPath id="clip0">
<rect width="57" height="75" fill="white"/>
</clipPath>
</defs>
</svg>
